<?xml version="1.0" encoding="utf-8"?>
<!-- Generator: Adobe Illustrator 21.0.2, SVG Export Plug-In . SVG Version: 6.00 Build 0)  -->
<svg version="1.1" id="svg" xmlns="http://www.w3.org/2000/svg" xmlns:xlink="http://www.w3.org/1999/xlink" x="0px" y="0px"
	 viewBox="0 0 821.3 131.6" style="enable-background:new 0 0 821.3 131.6;" xml:space="preserve">
<style type="text/css">
	.st0{fill:#7E7F7E;}
	.st1{clip-path:url(#SVGID_2_);fill:#7E7F7E;}
	.st2{clip-path:url(#SVGID_2_);fill:#18A94B;}
	.st3{clip-path:url(#SVGID_2_);fill:#288DC1;}
</style>
<g>
	<path class="st0" d="M353.6,89.4l17.8-1c0.2,6,1.2,10.1,2.9,12.2c2.7,3.4,7.8,5.1,15.1,5.1c6.1,0,10.6-1.2,13.3-3.5
		c2.7-2.3,4.1-5.1,4.1-8.4c0-2.9-1.1-5.3-3.4-7.2c-1.6-1.4-5.9-3.8-12.9-7c-7.1-3.2-12.2-6-15.5-8.1c-3.2-2.2-5.8-5-7.7-8.5
		c-1.9-3.5-2.8-7.5-2.8-12.2c0-8.1,2.8-14.9,8.3-20.2c5.5-5.4,13.6-8,24.1-8c10.7,0,18.9,2.7,24.8,8c5.9,5.3,9.1,12.4,9.6,21.2
		l-17.9,0.9c-0.5-4.6-2-8.1-4.7-10.6c-2.7-2.5-6.7-3.7-11.9-3.7c-5.2,0-8.9,1-11.1,2.9c-2.2,1.9-3.3,4.4-3.3,7.3c0,2.8,1,5,3,6.8
		c2,1.8,6.5,4.4,13.5,7.6c10.5,4.8,17.1,8.7,20,11.7c4.3,4.4,6.4,10,6.4,16.9c0,8.5-3.2,15.8-9.5,21.8c-6.4,6-15.2,9.1-26.5,9.1
		c-7.8,0-14.6-1.4-20.3-4.2c-5.7-2.8-9.8-6.7-12.1-11.6C354.6,101.6,353.5,95.8,353.6,89.4L353.6,89.4z"/>
	<path class="st0" d="M353.6,89.4l0.1,1.6l17.8-1l-0.1-1.6l-1.6,0.1c0.1,3.1,0.4,5.7,1,7.9c0.3,1.1,0.6,2.1,1,2.9
		c0.4,0.9,0.8,1.7,1.4,2.3l0,0c0.8,1,1.8,1.9,2.9,2.6c1.7,1.1,3.6,1.9,5.9,2.4c2.3,0.5,4.8,0.8,7.7,0.8c3.2,0,5.9-0.3,8.3-0.9
		c1.2-0.3,2.3-0.7,3.3-1.2c1-0.5,1.9-1.1,2.7-1.7c1.5-1.3,2.7-2.7,3.5-4.4c0.8-1.6,1.2-3.4,1.2-5.3c0-1.6-0.3-3.2-1-4.6
		c-0.7-1.4-1.6-2.7-2.9-3.8l-1.1,1.2l1.1-1.2c-0.5-0.5-1.1-0.9-1.9-1.4c-1.2-0.8-2.7-1.6-4.6-2.6c-1.9-1-4.2-2.1-6.8-3.3
		c-3.5-1.6-6.5-3.1-9.1-4.4c-2.5-1.3-4.6-2.5-6.2-3.6c-3-2-5.4-4.6-7.1-7.9c-0.9-1.6-1.5-3.3-1.9-5.2c-0.4-1.9-0.7-4-0.7-6.2
		c0-3.9,0.7-7.4,2-10.5c1.3-3.2,3.2-6,5.9-8.5c2.6-2.5,5.8-4.4,9.6-5.7c3.8-1.3,8.3-1.9,13.4-1.9c5.2,0,9.8,0.6,13.7,1.9
		c3.9,1.3,7.3,3.1,10,5.6c2.8,2.5,4.9,5.4,6.4,8.8c1.5,3.3,2.4,7.1,2.7,11.4l1.6-0.1l-0.1-1.6l-17.9,0.9l0.1,1.6l1.6-0.2
		c-0.2-2.4-0.8-4.7-1.7-6.6c-0.9-2-2.1-3.6-3.6-5h0c-1.5-1.4-3.4-2.4-5.6-3.1c-2.2-0.7-4.6-1-7.4-1c-2.7,0-5,0.2-7.1,0.8
		c-1,0.3-1.9,0.6-2.8,1c-0.8,0.4-1.6,0.9-2.3,1.5c-1.3,1.1-2.2,2.4-2.9,3.8c-0.7,1.4-1,3-1,4.7c0,1.6,0.3,3.1,0.9,4.4
		c0.6,1.4,1.5,2.6,2.7,3.6l1.1-1.2l-1.1,1.2c0.6,0.5,1.3,1.1,2.2,1.7c1.3,0.9,2.9,1.8,4.9,2.8c1.9,1,4.2,2.1,6.9,3.4l0,0
		c5.2,2.4,9.4,4.5,12.7,6.4c1.6,1,3,1.8,4.2,2.7c1.1,0.8,2,1.6,2.6,2.2l0,0c2,2,3.5,4.4,4.4,7c1,2.6,1.5,5.5,1.5,8.8
		c0,4.1-0.8,7.8-2.2,11.2c-1.5,3.4-3.7,6.6-6.8,9.5c-3,2.9-6.6,5-10.8,6.4c-4.2,1.4-9.1,2.2-14.6,2.2c-7.6,0-14.2-1.4-19.6-4
		c-2.7-1.3-5-2.9-6.9-4.7c-1.9-1.8-3.4-3.8-4.5-6.2c-2.1-4.4-3.1-9.4-3.2-15.2c0-0.4,0-0.8,0-1.2L353.6,89.4l0.1,1.6L353.6,89.4
		l-1.6,0c0,0.4,0,0.9,0,1.3c0,6.1,1.1,11.7,3.5,16.5c1.3,2.7,3,5,5.1,7.1c2.2,2.1,4.7,3.8,7.7,5.3c6,2.9,13,4.3,21,4.3
		c5.8,0,11-0.8,15.7-2.3c4.6-1.6,8.6-4,12-7.1c3.3-3.1,5.8-6.7,7.5-10.5c1.7-3.9,2.5-8,2.5-12.5c0-3.6-0.6-6.9-1.7-10
		c-1.1-3-2.9-5.7-5.1-8.1l0,0c-0.8-0.8-1.8-1.7-3.1-2.6c-1.9-1.3-4.2-2.8-7.1-4.4c-2.9-1.6-6.3-3.2-10.3-5.1l0,0
		c-3.4-1.6-6.3-3-8.5-4.2c-1.1-0.6-2-1.2-2.8-1.7c-0.8-0.5-1.4-1-1.8-1.4l0,0l0,0c-0.9-0.8-1.5-1.6-1.9-2.5
		c-0.4-0.9-0.6-1.9-0.6-3.1c0-1.3,0.2-2.4,0.7-3.4c0.5-1,1.1-1.9,2.1-2.7c0.4-0.4,1-0.7,1.6-1c0.9-0.5,2.1-0.8,3.5-1.1
		c1.4-0.3,3-0.4,4.9-0.4c2.5,0,4.6,0.3,6.4,0.8c1.8,0.6,3.2,1.4,4.4,2.4l0,0c1.2,1.1,2.1,2.4,2.8,4c0.7,1.6,1.2,3.4,1.4,5.6l0.2,1.5
		l21.1-1l-0.1-1.6c-0.3-4.6-1.3-8.7-3-12.5c-1.7-3.7-4.1-7-7.2-9.8c-3.1-2.8-6.9-4.9-11.2-6.3c-4.3-1.4-9.2-2.1-14.7-2.1
		c-5.4,0-10.2,0.7-14.4,2.1c-4.2,1.4-7.8,3.5-10.8,6.4c-2.9,2.8-5.1,6-6.6,9.6c-1.5,3.6-2.2,7.5-2.2,11.8c0,2.4,0.2,4.7,0.7,6.9
		c0.5,2.2,1.2,4.2,2.2,6c2,3.7,4.7,6.7,8.2,9c1.7,1.1,3.8,2.4,6.4,3.7c2.6,1.4,5.7,2.9,9.2,4.5c3.5,1.6,6.3,3,8.4,4.1
		c1.1,0.6,1.9,1.1,2.6,1.5c0.7,0.4,1.2,0.8,1.5,1.1l0,0l0,0c1,0.9,1.7,1.8,2.1,2.8c0.5,1,0.7,2.1,0.7,3.3c0,1.4-0.3,2.7-0.9,3.9
		c-0.6,1.2-1.4,2.3-2.7,3.3c-0.6,0.5-1.2,0.9-2,1.3c-1.2,0.6-2.6,1-4.3,1.3c-1.7,0.3-3.7,0.5-5.9,0.5c-3.6,0-6.5-0.4-8.8-1.2
		c-1.1-0.4-2.1-0.9-3-1.4c-0.8-0.6-1.5-1.2-2.1-1.9l0,0l0,0c-0.3-0.4-0.6-0.9-0.9-1.6c-0.4-1-0.8-2.3-1.1-3.9
		c-0.3-1.6-0.5-3.5-0.6-5.7l-0.1-1.6l-20.9,1.2l0,1.5L353.6,89.4L353.6,89.4z"/>
	<path class="st0" d="M469.6,87.8c0-0.7,0.1-1.2,0.1-1.6c0-4.3-0.9-7.5-2.7-9.6c-1.8-2.1-4.2-3.2-7.3-3.2c-3,0-5.8,1.2-8.2,3.6
		c-2.4,2.4-4,6-4.9,10.7H469.6L469.6,87.8z M482,97.3h-36.8c0,0.6-0.1,1.1-0.1,1.4c0,3.8,1,6.9,3.1,9.3c2.1,2.4,4.6,3.5,7.5,3.5
		c4.9,0,8.7-2.7,11.4-8l13.1,2.3c-2.6,5.6-6,9.8-10.3,12.6c-4.3,2.8-9.1,4.2-14.4,4.2c-7.3,0-13.2-2.5-17.8-7.4
		c-4.6-4.9-6.9-11.4-6.9-19.5c0-7.9,2.1-14.9,6.2-21.1c5.6-8.3,13.7-12.5,24.1-12.5c6.7,0,11.9,2.2,15.9,6.5
		c3.9,4.4,5.9,10.5,5.9,18.3C483,90.9,482.6,94.3,482,97.3L482,97.3z"/>
	<path class="st0" d="M469.6,87.8l1.3,0.1c0-0.7,0.1-1.2,0.1-1.6c0-2.2-0.2-4.2-0.7-6c-0.5-1.7-1.3-3.3-2.3-4.5v0
		c-1-1.2-2.3-2.1-3.7-2.8c-1.4-0.6-3-0.9-4.6-0.9c-1.7,0-3.3,0.3-4.9,1c-1.5,0.7-2.9,1.7-4.2,3c-1.3,1.3-2.4,3-3.3,4.9
		c-0.9,1.9-1.5,4.1-2,6.6l-0.3,1.6h25.8l0.1-1.3L469.6,87.8v-1.3h-23v1.3l1.3,0.2c0.4-2.3,1-4.3,1.8-5.9c0.8-1.7,1.7-3,2.8-4.1
		c1.1-1.1,2.2-1.9,3.4-2.4c1.2-0.5,2.4-0.8,3.8-0.8c1.4,0,2.5,0.2,3.6,0.7c1,0.5,1.9,1.1,2.7,2l0,0c0.8,0.9,1.4,2,1.8,3.5
		c0.4,1.5,0.6,3.2,0.6,5.2c0,0.3,0,0.8,0,1.5L469.6,87.8v-1.3V87.8L469.6,87.8z M482,97.3v-1.3h-38.1l-0.1,1.3
		c0,0.6-0.1,1.1-0.1,1.5c0,2,0.3,3.9,0.8,5.6c0.6,1.7,1.4,3.2,2.6,4.5l0.1,0.1l-0.1-0.1c1.1,1.3,2.4,2.3,3.9,3c1.4,0.7,3,1,4.7,1
		c1.3,0,2.6-0.2,3.8-0.6c1.8-0.6,3.5-1.6,5-2.9c1.5-1.4,2.7-3.1,3.8-5.3l-1.2-0.6l-0.2,1.3l13.1,2.3l0.2-1.3l-1.2-0.6
		c-1.2,2.7-2.7,5.1-4.3,7.1c-1.6,2-3.5,3.7-5.5,5c-2,1.3-4.2,2.3-6.5,3c-2.3,0.7-4.7,1-7.2,1c-3.5,0-6.6-0.6-9.4-1.7
		c-2.8-1.2-5.2-2.9-7.4-5.2c-2.2-2.3-3.8-5-4.9-8.1c-1.1-3.1-1.6-6.6-1.6-10.5c0-3.8,0.5-7.4,1.5-10.8c1-3.4,2.5-6.5,4.5-9.5l0,0
		c2.7-4,5.9-7,9.8-8.9c1.9-1,4-1.7,6.2-2.2c2.2-0.5,4.6-0.7,7.1-0.7c3.2,0,6,0.5,8.4,1.5c2.5,1,4.6,2.5,6.4,4.6
		c1.8,2,3.2,4.5,4.1,7.4c0.9,2.9,1.4,6.2,1.4,10.1c0,3.7-0.3,7-1,9.9L482,97.3v-1.3V97.3l1.3,0.3c0.7-3.1,1.1-6.6,1.1-10.4
		c0-4-0.5-7.7-1.5-10.9c-1-3.2-2.6-6-4.7-8.3c-2.1-2.3-4.6-4.1-7.4-5.2c-2.8-1.2-6-1.7-9.5-1.7c-2.7,0-5.3,0.3-7.7,0.8
		c-3.6,0.8-6.9,2.3-9.8,4.3c-2.9,2.1-5.5,4.7-7.7,8l0,0l0,0c-2.1,3.2-3.7,6.6-4.8,10.2c-1.1,3.6-1.6,7.5-1.6,11.6
		c0,4.2,0.6,8,1.8,11.4c1.2,3.4,3,6.4,5.4,9c2.4,2.6,5.2,4.5,8.3,5.8c3.1,1.3,6.6,1.9,10.4,1.9c2.8,0,5.4-0.4,8-1.1
		c2.5-0.7,4.9-1.8,7.2-3.3c2.3-1.5,4.3-3.3,6.1-5.5c1.8-2.2,3.3-4.8,4.7-7.6l0.7-1.6l-15.8-2.8l-0.5,0.9c-0.6,1.3-1.3,2.4-2.1,3.3
		c-1.1,1.4-2.3,2.4-3.7,3c-1.3,0.7-2.8,1-4.4,1c-1.3,0-2.5-0.3-3.5-0.8c-1.1-0.5-2.1-1.3-3-2.3v0c-0.9-1-1.6-2.2-2.1-3.6
		c-0.5-1.4-0.7-3-0.7-4.8c0-0.3,0-0.7,0-1.3l-1.3-0.1v1.3H483l0.2-1L482,97.3L482,97.3z"/>
	<path class="st0" d="M492.6,63.6h13.9l-1.4,7.5c3.5-3.2,6.7-5.5,9.7-6.8c3-1.4,6.2-2,9.5-2c4.5,0,8,1.4,10.6,4.1
		c2.6,2.7,3.9,6.3,3.9,10.8c0,2-0.6,5.9-1.7,11.5l-6.4,32.6H516l6.4-32.7c1-4.9,1.4-7.8,1.4-8.7c0-2-0.6-3.6-1.7-4.7
		c-1.1-1.1-2.7-1.7-4.6-1.7c-2.1,0-4.5,1-7.2,2.9c-2.6,1.9-4.7,4.4-6.2,7.6c-1.1,2.2-2.3,6.8-3.7,13.7l-4.7,23.7h-14.7L492.6,63.6
		L492.6,63.6z"/>
	<path class="st0" d="M492.6,63.6v1.3h12.3l-1.9,9.9l3-2.7c3.4-3.1,6.6-5.3,9.4-6.6c2.9-1.3,5.8-1.9,9-1.9c2.1,0,3.9,0.3,5.5,0.9
		c1.6,0.6,2.9,1.5,4.1,2.7c1.2,1.2,2,2.6,2.6,4.3c0.6,1.6,0.9,3.5,0.9,5.6c0,0.4,0,1-0.1,1.7c-0.1,1.1-0.3,2.4-0.5,4
		c-0.3,1.6-0.6,3.4-1,5.5l-6.2,31.5h-12l6.1-31.1v0c0.5-2.5,0.8-4.4,1.1-5.9c0.1-0.7,0.2-1.4,0.3-1.9c0-0.3,0.1-0.5,0.1-0.7
		c0-0.2,0-0.4,0-0.6c0-1.1-0.2-2.2-0.5-3.1c-0.3-0.9-0.9-1.8-1.5-2.5L523,74l0.2,0.2c-0.7-0.7-1.5-1.3-2.5-1.6
		c-0.9-0.3-2-0.5-3.1-0.5c-1.3,0-2.6,0.3-3.9,0.8c-1.3,0.5-2.7,1.3-4.1,2.3c-2.8,2.1-5,4.8-6.6,8.1l0,0c-0.3,0.6-0.6,1.4-0.9,2.3
		c-0.5,1.3-0.9,3-1.4,4.9c-0.5,2-1,4.2-1.5,6.8l-4.4,22.6h-12l11-56L492.6,63.6v1.3V63.6l-1.3-0.3l-11.7,59.2H497l4.9-24.7v0
		c0.7-3.4,1.3-6.3,1.9-8.5c0.3-1.1,0.6-2.1,0.9-2.9c0.3-0.8,0.5-1.5,0.8-2l0,0l0,0c1.4-3,3.3-5.3,5.8-7.1c1.2-0.9,2.4-1.6,3.5-2
		c1.1-0.4,2-0.6,2.9-0.6c0.9,0,1.6,0.1,2.2,0.3c0.6,0.2,1.1,0.5,1.5,1v0c0.4,0.4,0.7,0.9,0.9,1.5c0.2,0.6,0.3,1.3,0.3,2.2
		c0,0.1,0,0.2,0,0.3c0,0.3-0.1,0.7-0.1,1.1c-0.2,1.5-0.6,3.8-1.3,7v0l-6.8,34.3h17.4l6.6-33.7l0,0c0.6-2.8,1-5.2,1.3-7.2
		c0.1-1,0.3-1.8,0.3-2.6c0.1-0.8,0.1-1.4,0.1-2c0-2.4-0.3-4.5-1-6.5c-0.7-2-1.8-3.7-3.2-5.2c-1.4-1.5-3.1-2.6-5.1-3.4
		c-1.9-0.7-4.1-1.1-6.5-1.1c-3.5,0-6.9,0.7-10.1,2.2c-3.2,1.4-6.5,3.8-10.1,7l0.9,1l1.3,0.3l1.7-9.1h-16.6l-0.2,1.1L492.6,63.6
		L492.6,63.6z"/>
	<path class="st0" d="M551.2,41.7h14.7l-2.8,14.1h-14.7L551.2,41.7L551.2,41.7z M546.9,63.6h14.7l-11.4,57.6h-14.7L546.9,63.6
		L546.9,63.6z"/>
	<path class="st0" d="M551.2,41.7V43h13.1l-2.2,11.4h-12l2.5-12.5L551.2,41.7V43V41.7l-1.3-0.3l-3.1,15.7h17.4l3.3-16.8h-17.4
		l-0.2,1.1L551.2,41.7L551.2,41.7z M546.9,63.6v1.3H560l-10.8,55h-12l11-56L546.9,63.6v1.3V63.6l-1.3-0.3L534,122.6h17.4l11.9-60.3
		h-17.4l-0.2,1.1L546.9,63.6L546.9,63.6z"/>
	<path class="st0" d="M602.4,86.2c0-3.7-1-6.6-3-8.9c-2-2.2-4.6-3.3-7.9-3.3c-3.2,0-6,1-8.4,3.1c-2.5,2.1-4.4,5.1-5.7,9.1
		s-2,7.6-2,10.9c0,4.1,1.1,7.4,3.2,9.8c2.1,2.4,4.8,3.6,8,3.6c4,0,7.4-1.8,10.1-5.5C600.5,99.9,602.4,93.6,602.4,86.2L602.4,86.2z
		 M560.6,97.3c0-10.7,2.8-19.2,8.5-25.5c5.7-6.3,13.1-9.5,22.4-9.5c8,0,14.3,2.3,18.8,7c4.5,4.7,6.8,11,6.8,18.9
		c0,9.3-2.8,17.4-8.4,24.2c-5.6,6.8-13.2,10.2-22.6,10.2c-5.1,0-9.7-1.1-13.6-3.3c-4-2.2-6.9-5.2-8.9-9.2
		C561.5,106.1,560.6,101.9,560.6,97.3L560.6,97.3z"/>
	<path class="st0" d="M602.4,86.2h1.3c0-2-0.3-3.8-0.8-5.4c-0.6-1.6-1.4-3.1-2.6-4.4c-1.1-1.2-2.5-2.2-3.9-2.8
		c-1.5-0.6-3.1-0.9-4.9-0.9c-1.7,0-3.4,0.3-5,0.9c-1.6,0.6-3,1.4-4.4,2.6c-1.3,1.1-2.5,2.5-3.5,4.1c-1,1.6-1.9,3.5-2.6,5.5
		c-1.4,4.1-2.1,7.9-2.1,11.4c0,2.2,0.3,4.2,0.9,6c0.6,1.8,1.5,3.4,2.6,4.7v0c1.2,1.3,2.5,2.4,4,3.1c1.5,0.7,3.2,1,5,1
		c2.2,0,4.3-0.5,6.2-1.5c1.9-1,3.6-2.5,5-4.5l0,0c2-2.7,3.6-5.7,4.6-9c1-3.3,1.5-6.9,1.5-10.7H602.4h-1.3c0,3.6-0.5,6.9-1.4,9.9
		c-0.9,3-2.3,5.7-4.2,8.2l0,0c-1.3,1.7-2.7,2.9-4.1,3.7c-1.5,0.8-3.1,1.2-4.9,1.2c-1.4,0-2.7-0.3-3.8-0.8c-1.1-0.5-2.2-1.3-3.1-2.4
		v0c-0.9-1.1-1.6-2.3-2.1-3.8c-0.5-1.5-0.7-3.2-0.7-5.1c0-3.1,0.6-6.6,2-10.5c0.7-1.9,1.4-3.5,2.3-5c0.9-1.4,1.9-2.6,3-3.5
		c1.1-0.9,2.3-1.6,3.6-2.1c1.3-0.5,2.6-0.7,4-0.7c1.4,0,2.7,0.2,3.8,0.7c1.1,0.5,2.1,1.2,3,2.2c0.9,1,1.6,2.1,2,3.4
		c0.5,1.3,0.7,2.8,0.7,4.6H602.4L602.4,86.2z M560.6,97.3h1.3c0-5.2,0.7-9.9,2.1-14c1.4-4.1,3.4-7.6,6.1-10.7c2.7-3,5.8-5.3,9.4-6.8
		c3.5-1.5,7.5-2.3,12-2.3c3.9,0,7.3,0.6,10.2,1.7c3,1.1,5.5,2.7,7.6,4.9c2.1,2.2,3.7,4.8,4.8,7.8c1.1,3,1.6,6.4,1.6,10.2
		c0,4.5-0.7,8.7-2,12.6c-1.4,3.9-3.4,7.5-6.1,10.7c-2.7,3.3-5.8,5.7-9.4,7.3c-3.6,1.6-7.6,2.4-12.2,2.4c-2.5,0-4.8-0.3-6.9-0.8
		c-2.2-0.5-4.2-1.3-6-2.3c-1.9-1-3.5-2.3-4.9-3.7c-1.4-1.4-2.5-3.1-3.4-5c-1.9-3.8-2.8-7.9-2.8-12.2H560.6h-1.3
		c0,4.7,1,9.2,3.1,13.4c1,2.1,2.3,4,3.9,5.6c1.6,1.6,3.4,3,5.5,4.2c2.1,1.1,4.3,2,6.7,2.6c2.4,0.6,4.9,0.9,7.6,0.9
		c4.9,0,9.3-0.9,13.3-2.7c4-1.8,7.4-4.5,10.4-8c2.9-3.5,5.1-7.4,6.6-11.6c1.5-4.2,2.2-8.7,2.2-13.5c0-4.1-0.6-7.8-1.8-11.1
		c-1.2-3.3-3-6.2-5.4-8.7c-2.4-2.5-5.3-4.4-8.6-5.6c-3.3-1.2-7-1.8-11.2-1.8c-4.8,0-9.1,0.8-13,2.5c-3.9,1.7-7.4,4.2-10.3,7.5
		c-3,3.3-5.2,7.2-6.7,11.6c-1.5,4.4-2.2,9.4-2.2,14.8H560.6L560.6,97.3z"/>
	<path class="st0" d="M627.5,63.6h13.7L639,74.8c5.1-8.4,10.7-12.5,16.6-12.5c2.1,0,4.4,0.6,6.8,1.7l-5.6,12.8
		c-1.3-0.5-2.7-0.8-4.2-0.8c-2.5,0-5.1,1-7.7,3c-2.6,2-4.6,4.7-6.1,8.1c-1.5,3.4-2.9,8.7-4.3,16.1l-3.6,18.1h-14.7L627.5,63.6
		L627.5,63.6z"/>
	<path class="st0" d="M627.5,63.6v1.3h12.1l-3.3,16.9l3.9-6.3c2.5-4.1,5.1-7.1,7.7-9c1.3-1,2.6-1.7,3.9-2.2c1.3-0.5,2.6-0.7,3.9-0.7
		c1.9,0,4,0.5,6.2,1.6l0.6-1.2l-1.2-0.5l-5.6,12.8l1.2,0.5l0.5-1.2c-1.5-0.6-3.1-0.8-4.7-0.8c-1.4,0-2.9,0.3-4.3,0.9
		c-1.4,0.6-2.8,1.4-4.2,2.5c-1.4,1.1-2.6,2.4-3.7,3.8c-1.1,1.4-2,3.1-2.8,4.8c-0.8,1.8-1.5,4-2.3,6.7c-0.7,2.7-1.5,5.9-2.2,9.6l0,0
		l-3.4,17h-12l11-56L627.5,63.6v1.3V63.6l-1.3-0.3l-11.7,59.2h17.4l3.8-19.1v0c0.7-3.6,1.4-6.8,2.1-9.4c0.7-2.6,1.4-4.8,2.1-6.4
		c0.7-1.6,1.5-3,2.5-4.3c1-1.3,2-2.4,3.2-3.3c1.2-0.9,2.4-1.6,3.6-2.1c1.1-0.5,2.2-0.7,3.3-0.7c1.4,0,2.6,0.2,3.8,0.7l1.2,0.5
		l6.7-15.1l-1.2-0.6c-2.6-1.2-5-1.8-7.4-1.8c-1.6,0-3.3,0.3-4.9,0.9c-2.4,0.9-4.6,2.3-6.8,4.4c-2.1,2.1-4.2,4.7-6.1,7.9l1.1,0.7
		l1.3,0.3l2.5-12.8h-16.4l-0.2,1.1L627.5,63.6L627.5,63.6z"/>
	<g>
		<defs>
			<rect id="SVGID_1_" x="15" y="3" width="787.9" height="124.6"/>
		</defs>
		<clipPath id="SVGID_2_">
			<use xlink:href="#SVGID_1_"  style="overflow:visible;"/>
		</clipPath>
		<path class="st1" d="M762.3,62.3l-8.4,35.1c-0.9,2.4-2.4,4.7-4.2,6.8c-2.2,2.5-4.5,3.7-6.9,3.7c-2.2,0-3.3-1.1-3.3-3.3l9.5-42.3
			h-14.3l12-21.2h-21.8l-29.5,52.6L686.2,41h-21.1l2.7,14.7l1.2,6.6h0l0.5,2.5l10.4,57.3h20.9l23.7-41.8L721,94.8
			c-1.4,5.9-2,9.9-2,11.9c0,4.9,1.5,8.9,4.3,12c3,3.2,7,4.7,12,4.7c5.2,0,10.1-1.4,14.7-4.4l-0.6,3.1h19.4l13.9-59.7H762.3
			L762.3,62.3z"/>
		<path class="st2" d="M101.8,48.7l-78,9.3v60.6h64.4V74.9h-9.6h-1.3v0c-1.4,0-2.8-0.7-3.7-2c-1.4-2-0.8-4.8,1.2-6.1L101.8,48.7
			L101.8,48.7L101.8,48.7z M240.2,48.7l26,18c1.3,0.8,2.2,2.2,2.2,3.8c0,2.4-2,4.4-4.4,4.4h-1.3h-7.1v43.8h63.1V58L240.2,48.7
			L240.2,48.7L240.2,48.7z M282.8,77.5h12.4c2.4,0,4.4,2,4.4,4.4v12.4c0,2.4-2,4.4-4.4,4.4h-12.4c-2.4,0-4.4-2-4.4-4.4V82
			C278.3,79.5,280.3,77.5,282.8,77.5L282.8,77.5L282.8,77.5z M47.5,77.5h12.4c2.4,0,4.4,2,4.4,4.4v12.4c0,2.4-2,4.4-4.4,4.4H47.5
			c-2.5,0-4.4-2-4.4-4.4V82C43,79.5,45,77.5,47.5,77.5L47.5,77.5L47.5,77.5z M205.4,68.7h13.9c2.4,0,4.4,2,4.4,4.4v30
			c0,2.5-2,4.4-4.4,4.4h-13.9c-2.4,0-4.4-2-4.4-4.4v-30C201,70.7,203,68.7,205.4,68.7L205.4,68.7L205.4,68.7z M123.3,68.7h13.9
			c2.5,0,4.4,2,4.4,4.4v30c0,2.5-2,4.4-4.4,4.4h-13.9c-2.5,0-4.4-2-4.4-4.4v-30C118.9,70.7,120.8,68.7,123.3,68.7L123.3,68.7
			L123.3,68.7z M163.8,76.1h15.1c2.4,0,4.4,2,4.4,4.4v38.1h62.2V70.5c0-2,1.4-3.7,3.2-4.3l-29.9-20.6c-0.7-0.5-1.3-1.2-1.6-2
			l-44.7-30.8L93.2,66H94c2.5,0,4.4,2,4.4,4.4v48.2h60.9V80.6C159.3,78.1,161.3,76.1,163.8,76.1L163.8,76.1L163.8,76.1z M178.9,59.4
			h-15.1c-2.4,0-4.4-2-4.4-4.4V39.9c0-2.4,2-4.4,4.4-4.4h15.1c2.4,0,4.4,2,4.4,4.4v15.1C183.3,57.4,181.3,59.4,178.9,59.4
			L178.9,59.4L178.9,59.4z M19.1,49.7l99.9-11.9c0.2,0,0.3,0,0.5,0L170,3.8c1.5-1,3.5-1.1,5.1,0l49.4,34.1l99.2,11.9
			c2.3,0.3,3.9,2.2,3.9,4.4h0v69c0,2.5-2,4.4-4.4,4.4h-72h-1.3H94c-0.2,0-0.4,0-0.6,0c-0.2,0-0.4,0-0.6,0H19.4c-2.4,0-4.4-2-4.4-4.4
			v-69C15,51.8,16.8,49.9,19.1,49.7L19.1,49.7L19.1,49.7z"/>
		<path class="st3" d="M240.2,48.7L240.2,48.7l26,18c1.3,0.8,2.2,2.2,2.2,3.8c0,2.4-2,4.4-4.4,4.4h-1.3h-7.1v43.8h63.1V58
			 M282.8,77.5h12.4c2.4,0,4.4,2,4.4,4.4v12.4c0,2.4-2,4.4-4.4,4.4h-12.4c-2.4,0-4.4-2-4.4-4.4V82C278.3,79.5,280.3,77.5,282.8,77.5
			L282.8,77.5L282.8,77.5z M205.4,68.7h13.9c2.4,0,4.4,2,4.4,4.4v30c0,2.5-2,4.4-4.4,4.4h-13.9c-2.4,0-4.4-2-4.4-4.4v-30
			C201,70.7,203,68.7,205.4,68.7L205.4,68.7L205.4,68.7z M172,35.5v23.9h6.9c2.4,0,4.4-2,4.4-4.4V39.9c0-2.4-2-4.4-4.4-4.4H172
			L172,35.5L172,35.5z M172,3c1.1-0.2,2.2,0.1,3.2,0.7l49.4,34.1l99.2,11.9c2.3,0.3,3.9,2.2,3.9,4.4h0v69c0,2.5-2,4.4-4.4,4.4h-72
			h-1.3h-78V76.1h6.9c2.4,0,4.4,2,4.4,4.4v38.1h62.2V70.5c0-2,1.4-3.7,3.2-4.3l-29.9-20.6c-0.7-0.5-1.3-1.2-1.6-2l-44.7-30.8
			l-0.6,0.4V3L172,3L172,3z"/>
	</g>
	<path class="st0" d="M795.8,28.7c-0.4-0.2-1.1-0.4-2.1-0.4h-1.5v3.5h1.6c0.7,0,1.3-0.1,1.6-0.2c0.7-0.3,1-0.8,1-1.5
		C796.4,29.4,796.2,28.9,795.8,28.7L795.8,28.7z M793.9,27.2c1.2,0,2.1,0.1,2.7,0.4c1,0.4,1.5,1.2,1.5,2.5c0,0.9-0.3,1.5-1,1.9
		c-0.3,0.2-0.8,0.4-1.4,0.5c0.8,0.1,1.3,0.4,1.7,1c0.4,0.5,0.5,1,0.5,1.5v0.7c0,0.2,0,0.5,0,0.7c0,0.3,0,0.4,0.1,0.5l0.1,0.1h-1.6
		c0,0,0-0.1,0-0.1c0,0,0-0.1,0-0.1l0-0.3v-0.8c0-1.1-0.3-1.9-0.9-2.2c-0.4-0.2-1-0.3-1.9-0.3h-1.4v3.8h-1.7v-9.7H793.9L793.9,27.2z
		 M788.7,26.7c-1.5,1.5-2.2,3.3-2.2,5.4c0,2.1,0.7,3.9,2.2,5.4c1.5,1.5,3.3,2.2,5.4,2.2c2.1,0,3.9-0.7,5.4-2.2
		c1.5-1.5,2.2-3.3,2.2-5.4c0-2.1-0.7-3.9-2.2-5.4c-1.5-1.5-3.3-2.2-5.4-2.2C792,24.4,790.2,25.2,788.7,26.7L788.7,26.7z M800.4,38.4
		c-1.7,1.7-3.8,2.6-6.3,2.6c-2.5,0-4.6-0.9-6.3-2.6c-1.7-1.7-2.6-3.8-2.6-6.3c0-2.4,0.9-4.5,2.6-6.3c1.7-1.7,3.8-2.6,6.3-2.6
		c2.5,0,4.6,0.9,6.3,2.6c1.7,1.7,2.6,3.8,2.6,6.3C803,34.5,802.1,36.6,800.4,38.4L800.4,38.4z"/>
</g>
</svg>
